<?xml version="1.0" standalone="no"?>
<!DOCTYPE svg PUBLIC "-//W3C//DTD SVG 20010904//EN"
 "http://www.w3.org/TR/2001/REC-SVG-20010904/DTD/svg10.dtd">
<svg version="1.0" xmlns="http://www.w3.org/2000/svg"
 width="1200.000000pt" height="1200.000000pt" viewBox="0 0 1200.000000 1200.000000"
 preserveAspectRatio="xMidYMid meet">
<metadata>
Created by potrace 1.11, written by Peter Selinger 2001-2013
</metadata>
<g transform="translate(0.000000,1200.000000) scale(0.100000,-0.100000)"
fill="#000000" stroke="none">
<path d="M4440 9108 c-242 -49 -404 -209 -500 -496 -16 -49 -32 -106 -36 -128
-3 -21 -10 -58 -15 -82 -32 -147 -32 -539 1 -773 17 -121 20 -144 25 -169 5
-28 25 -132 31 -170 3 -14 9 -41 14 -60 5 -19 6 -37 2 -40 -4 -4 -59 -23 -122
-44 -63 -20 -124 -41 -135 -46 -11 -5 -76 -32 -145 -60 -339 -140 -605 -304
-785 -485 -391 -390 -351 -803 115 -1182 182 -148 499 -322 754 -414 45 -16
88 -33 96 -37 8 -5 64 -24 123 -43 l109 -34 -5 -35 c-8 -48 -15 -87 -27 -140
-6 -25 -12 -58 -14 -75 -3 -16 -9 -59 -15 -95 -30 -195 -36 -276 -36 -505 0
-184 7 -303 20 -370 56 -268 130 -430 253 -551 203 -200 516 -221 907 -60 267
111 621 349 896 604 26 24 51 43 56 42 4 0 35 -24 67 -53 50 -44 116 -99 221
-186 39 -32 201 -148 270 -192 190 -124 413 -230 575 -275 169 -46 369 -53
485 -17 75 24 171 78 228 130 116 103 218 314 256 529 10 54 13 82 26 199 6
50 6 346 0 400 -2 22 -6 69 -10 105 -3 36 -8 83 -11 105 -5 43 -40 254 -49
295 -16 71 -27 142 -23 146 3 2 14 6 24 8 23 5 235 81 354 127 127 49 411 196
528 272 357 236 545 499 545 761 0 39 -3 82 -6 96 -48 234 -211 444 -500 643
-163 113 -400 234 -617 317 -47 18 -94 36 -105 41 -11 4 -66 23 -123 42 -56
19 -105 36 -108 39 -3 3 8 75 25 159 29 152 33 180 46 289 4 30 9 69 12 85 9
55 12 529 2 585 -5 30 -14 84 -20 120 -42 244 -150 457 -286 565 -113 90 -222
126 -388 130 -285 6 -638 -142 -1035 -434 -133 -97 -233 -179 -334 -273 -28
-26 -54 -48 -58 -48 -4 0 -20 12 -36 28 -24 24 -139 123 -197 171 -379 311
-787 515 -1090 547 -112 11 -145 10 -235 -8z m250 -313 c79 -13 242 -72 350
-126 226 -114 480 -296 718 -516 12 -12 1 -27 -113 -147 -41 -44 -190 -220
-256 -304 -38 -48 -72 -91 -76 -97 -38 -47 -102 -134 -111 -151 -10 -18 -26
-23 -109 -33 -54 -7 -109 -14 -123 -16 -14 -2 -50 -7 -80 -10 -30 -4 -57 -8
-60 -10 -3 -2 -27 -6 -55 -9 -27 -4 -57 -9 -65 -11 -8 -3 -31 -7 -50 -9 -19
-3 -111 -21 -203 -41 -92 -20 -171 -33 -176 -31 -7 5 -16 41 -37 151 -2 11 -6
31 -9 45 -2 14 -7 41 -10 60 -3 19 -7 46 -10 60 -3 14 -8 50 -11 80 -4 30 -8
71 -11 90 -8 74 -11 418 -3 485 40 335 146 519 313 541 23 4 43 7 45 9 4 4
101 -3 142 -10z m2837 -2 c91 -27 156 -98 206 -224 56 -140 81 -305 81 -529 0
-98 -10 -286 -18 -330 -2 -14 -7 -47 -10 -75 -3 -27 -10 -75 -16 -105 -6 -30
-13 -68 -16 -85 -16 -96 -28 -151 -34 -158 -4 -4 -47 1 -96 12 -100 22 -116
26 -229 47 -167 31 -245 43 -410 64 -93 12 -170 23 -171 24 -17 29 -316 410
-333 426 -4 3 -37 41 -76 85 -38 44 -92 104 -120 133 -27 29 -51 57 -53 61 -2
5 33 41 77 80 312 275 633 476 876 550 55 16 111 32 125 34 65 9 170 5 217
-10z m-1488 -920 c18 -21 57 -63 86 -94 57 -62 217 -249 245 -289 l18 -25
-388 0 c-256 0 -386 3 -382 10 7 12 63 86 77 101 5 6 28 33 50 60 22 27 76 89
121 139 44 49 89 100 99 113 26 30 36 28 74 -15z m247 -727 c109 -4 213 -9
229 -11 17 -2 52 -5 78 -6 l49 -2 87 -131 c84 -125 226 -355 286 -461 76 -136
153 -282 207 -395 l60 -125 -82 -165 c-195 -391 -526 -939 -572 -946 -19 -2
-178 -13 -303 -20 -118 -6 -522 -6 -655 0 -160 8 -283 17 -300 22 -14 4 -83
102 -213 305 -96 150 -247 418 -345 613 l-95 188 91 182 c107 213 156 304 265
486 95 160 276 440 286 441 3 0 17 2 31 4 57 9 156 15 350 21 113 4 206 7 207
8 2 2 131 -1 339 -8z m-1349 -73 c-3 -5 -41 -67 -85 -139 -83 -135 -190 -323
-257 -451 -20 -40 -40 -73 -44 -73 -3 0 -14 22 -23 48 -9 26 -23 65 -32 87
-62 165 -141 413 -134 420 4 5 40 13 173 41 11 2 70 14 130 25 61 12 119 23
130 25 11 2 43 7 70 10 28 4 52 8 54 10 8 7 22 4 18 -3z m2383 -38 c61 -11
315 -67 318 -70 4 -3 -138 -436 -148 -450 -3 -5 -13 -29 -20 -53 -7 -24 -16
-45 -20 -47 -3 -2 -24 31 -45 73 -48 93 -189 338 -239 416 -20 31 -36 59 -36
62 0 2 -5 10 -10 17 -22 26 -58 86 -54 90 3 3 143 -17 254 -38z m-3205 -365
c50 -153 159 -446 200 -535 7 -17 22 -51 33 -76 l20 -46 -29 -69 c-17 -38 -36
-82 -43 -99 -48 -106 -174 -463 -241 -682 -7 -22 -326 94 -534 194 -379 181
-638 406 -687 595 -43 165 88 355 386 555 147 100 442 242 635 308 44 15 89
31 100 36 11 4 36 12 55 17 42 11 30 32 105 -198z m3974 165 c499 -175 863
-398 1019 -626 47 -69 66 -126 66 -195 1 -264 -451 -600 -1109 -825 -98 -33
-111 -35 -117 -21 -3 10 -21 64 -38 122 -48 158 -125 365 -215 580 -32 74 -57
142 -57 151 0 9 10 36 21 60 67 147 193 486 252 679 17 58 33 108 35 112 6 9
24 5 143 -37z m-629 -1227 c0 -5 6 -24 14 -41 52 -117 171 -486 160 -497 -14
-13 -342 -81 -504 -105 -24 -4 -48 -9 -52 -11 -16 -10 -7 23 15 56 76 114 269
451 341 597 10 21 26 22 26 1z m-2854 -83 c59 -112 202 -358 260 -448 24 -37
44 -71 44 -76 0 -5 7 -14 15 -21 8 -7 15 -16 15 -20 0 -8 -235 31 -390 65 -14
3 -38 8 -55 10 -16 3 -52 11 -80 19 -60 15 -60 9 -3 180 73 223 136 392 143
385 1 -2 24 -44 51 -94z m-251 -786 c17 -4 41 -10 55 -13 14 -2 57 -11 95 -19
170 -37 441 -79 643 -101 19 -2 37 -7 41 -12 4 -5 30 -38 56 -74 115 -153 301
-380 405 -493 97 -106 120 -133 120 -138 0 -7 -117 -113 -165 -150 -16 -13
-32 -26 -35 -29 -17 -19 -196 -153 -292 -216 -123 -82 -334 -190 -438 -225
-167 -54 -313 -60 -406 -14 -105 51 -181 189 -218 395 -9 47 -19 105 -22 130
-8 62 -8 373 0 440 33 271 46 353 77 491 11 50 10 50 84 28z m3385 -51 c6 -35
14 -72 16 -83 12 -53 33 -187 40 -245 4 -36 9 -76 11 -90 12 -65 10 -460 -2
-535 -20 -128 -24 -147 -40 -200 -47 -152 -127 -257 -221 -289 -46 -15 -194
-16 -259 -2 -118 27 -163 44 -333 128 -159 78 -423 257 -563 380 -14 13 -56
50 -93 82 l-66 59 57 61 c133 141 387 448 488 590 42 59 49 63 130 70 63 6
132 15 165 21 14 2 45 7 70 10 25 3 56 8 70 10 14 3 41 7 60 10 19 3 48 8 64
11 33 5 304 63 351 74 17 4 33 5 36 4 4 -2 12 -32 19 -66z m-1360 -138 c-15
-25 -196 -239 -287 -338 -55 -60 -89 -89 -97 -85 -20 12 -160 168 -264 293
-52 63 -101 122 -108 130 -11 13 32 15 376 15 342 0 387 -2 380 -15z"/>
<path d="M5925 6664 c-105 -20 -141 -31 -214 -66 -67 -32 -101 -57 -166 -121
-137 -137 -194 -273 -195 -462 -1 -304 213 -568 515 -636 73 -16 211 -14 285
5 415 104 621 561 423 939 -45 86 -163 209 -243 255 -91 51 -201 83 -299 86
-47 2 -95 2 -106 0z"/>
</g>
</svg>
